<?xml version="1.0" encoding="utf-8"?>
<!-- Generator: Adobe Illustrator 18.1.1, SVG Export Plug-In . SVG Version: 6.00 Build 0)  -->
<svg version="1.1" id="Layer_1" xmlns="http://www.w3.org/2000/svg" xmlns:xlink="http://www.w3.org/1999/xlink" x="0px" y="0px"
	 viewBox="0 0 705 698.2" enable-background="new 0 0 705 698.2" xml:space="preserve">
<g>
	<g>
		<path fill="#4F6BB3" d="M281.9,321.4h-38.6c0.9-30,1.3-56.2,1.3-78.1h-68.7c0,19.7,0.4,45.9,1.3,78.1h-38.6
			c1.3-30,1.7-61,1.7-92.7c0-32.2-0.4-60.5-1.7-84.6h38.6c-1.3,25.3-1.7,48.9-1.7,70.8h69.1c0-19.3-0.4-42.9-1.7-70.8h38.6
			c-1.3,23.2-1.7,51.1-1.7,84.6C280.2,263.4,280.6,294.3,281.9,321.4z"/>
		<path fill="#4F6BB3" d="M476,321.4h-43.8c0-6-4.3-23.2-12.4-51.1h-62.7c-8.6,27.5-12.9,44.6-12.9,51.1H303
			c0-3.4,10.7-32.6,31.8-87.1c21-54.5,31.8-84.6,31.8-90.1H418c0,5.2,9.4,34.8,28.8,88.9S476,316.7,476,321.4z M412.9,244.6
			c-15.5-46.8-23.2-72.1-23.2-76h-2.1c0,3.4-8.2,28.8-24,76H412.9z"/>
		<path fill="#4F6BB3" d="M535.6,321.4H497c1.3-28.3,1.7-59.2,1.7-92.7c0-33.1-0.4-61.4-1.7-84.6h38.6c-1.3,22.8-1.7,51.1-1.7,84.6
			C533.9,263,534.3,293.9,535.6,321.4z"/>
	</g>
	<g>
		<g>
			<g>
				<path fill="#4F6BB3" d="M534.1,399.6c0,3.8-0.4,7.3-1.1,9.9c-0.8,2.7-1.9,4.6-3.4,6.5c-1.5,1.5-3.4,3.1-6.1,3.4
					c-2.7,0.8-5.7,1.1-9.5,1.1s-6.9-0.4-9.5-1.1c-2.7-0.8-4.6-1.9-6.1-3.4c-1.5-1.5-2.7-3.8-3.1-6.5c-0.4-2.7-0.8-5.7-0.8-9.9
					c0-3.8,0.4-7.3,0.8-9.9c0.4-2.7,1.5-5,3.1-6.5c1.5-1.5,3.4-3.1,6.1-3.8c2.7-0.8,5.7-1.1,9.5-1.1s6.9,0.4,9.5,1.1
					c2.7,0.8,4.6,1.9,6.1,3.8c1.5,1.5,2.7,3.8,3.4,6.5C533.7,392.3,534.1,395.8,534.1,399.6z M534.1,490.9c0,3.8-0.4,7.3-1.1,9.9
					s-1.9,5-3.4,6.5s-3.4,3.1-6.1,3.4c-2.7,0.8-5.7,1.1-9.5,1.1s-6.9-0.4-9.5-1.1s-4.6-1.9-6.1-3.4c-1.5-1.5-2.7-3.8-3.1-6.5
					c-0.4-2.7-0.8-6.1-0.8-9.9c0-3.8,0.4-7.3,0.8-9.9c0.4-2.7,1.5-5,3.1-6.5c1.5-1.5,3.4-3.1,6.1-3.4c2.7-0.8,5.7-1.1,9.5-1.1
					s6.9,0.4,9.5,1.1c2.7,0.8,4.6,1.9,6.1,3.4c1.5,1.5,2.7,3.8,3.4,6.5C533.7,483.6,534.1,487.1,534.1,490.9z"/>
			</g>
		</g>
		<path fill="#F68821" d="M251.4,464.5c0,32.1-26.4,48.1-79.1,48.1c-9.2,0-23.3-0.4-42.8-0.8c1.1-24.4,1.5-51.9,1.5-82.5
			c0-29.4-0.4-54.6-1.5-75.3h19.5c3.8,0,9.9,0,18.7-0.4s15.7-0.4,20.6-0.4c35.9,0,53.9,11.5,53.9,34.8c0,18-9.2,29.8-27.5,35.5v1.9
			c9.9,1.5,18.3,5.3,25.6,11.5C247.6,443.1,251.4,452.3,251.4,464.5z M210.2,398.1c0-14.5-9.2-21.8-27.1-21.8
			c-8.4,0-15.7,0.8-22.2,1.9c0.8,8,1.1,22.2,1.1,42c3.1,0,6.5,0.4,9.5,0.4C197.2,420.2,210.2,413,210.2,398.1z M219,465.7
			c0-16-14.1-24.1-42.4-24.1c-5.7,0-10.3,0.4-14.5,0.8c0,16.8,0.4,32.5,1.1,46.6c2.7,0.8,6.9,1.1,12.2,1.1c14.9,0,26-1.9,32.9-5.3
			C215.1,481.3,219,474.9,219,465.7z"/>
		<path fill="#F68821" d="M424.5,430.2c0,24.8-7.6,45.5-22.9,61.9c-15.3,16.4-34,24.4-56.5,24.4c-21.4,0-39.3-7.6-53.5-22.5
			s-21.4-34-21.4-57.3c0-24.8,7.6-45.5,22.9-61.9c15.3-16.4,34-24.4,56.5-24.4c21.4,0,39.3,7.6,53.5,22.5
			C417.6,387.8,424.5,406.9,424.5,430.2z M391.2,433.6c0-16.8-4.2-30.6-13-41.3c-8.8-10.7-19.5-15.7-32.1-15.7
			c-11.8,0-21.8,5.3-30.2,16s-12.2,24.1-12.2,40.1c0,16.8,4.2,30.6,13,40.9c8.8,10.7,19.5,15.7,32.1,15.7c11.8,0,21.8-5.3,30.2-16
			C387.4,462.6,391.2,449.6,391.2,433.6z"/>
	</g>
</g>
</svg>
